<svg xmlns="http://www.w3.org/2000/svg" width="23.722" height="23.141" viewBox="0 0 23.722 23.141"><defs><style>.a{fill:#04d361;}</style></defs><g transform="translate(0 0)"><path class="a" d="M22.131,11.272a11.809,11.809,0,0,0-4.316-4.317,11.6,11.6,0,0,0-5.953-1.591A11.6,11.6,0,0,0,5.907,6.956a11.808,11.808,0,0,0-4.316,4.317A11.6,11.6,0,0,0,0,17.225,11.527,11.527,0,0,0,2.262,24.2a11.616,11.616,0,0,0,5.845,4.286.691.691,0,0,0,.618-.108.6.6,0,0,0,.2-.463q0-.046-.008-.834T8.911,25.7l-.355.061a4.531,4.531,0,0,1-.857.054,6.531,6.531,0,0,1-1.073-.108,2.4,2.4,0,0,1-1.035-.463,1.959,1.959,0,0,1-.679-.95l-.154-.355a3.859,3.859,0,0,0-.486-.788,1.864,1.864,0,0,0-.672-.587l-.108-.077a1.134,1.134,0,0,1-.2-.185.847.847,0,0,1-.139-.216q-.046-.108.077-.178a1,1,0,0,1,.448-.069l.309.046a2.254,2.254,0,0,1,.764.371,2.493,2.493,0,0,1,.749.8,2.722,2.722,0,0,0,.857.965,1.818,1.818,0,0,0,1.011.332,4.392,4.392,0,0,0,.88-.077,3.072,3.072,0,0,0,.695-.232A2.5,2.5,0,0,1,9.7,22.461a10.575,10.575,0,0,1-1.583-.278,6.3,6.3,0,0,1-1.452-.6A4.158,4.158,0,0,1,5.42,20.546a4.972,4.972,0,0,1-.811-1.622,7.711,7.711,0,0,1-.317-2.317,4.5,4.5,0,0,1,1.22-3.182,4.152,4.152,0,0,1,.108-3.15,2.164,2.164,0,0,1,1.328.208,9.285,9.285,0,0,1,1.29.595q.409.247.656.417a11.153,11.153,0,0,1,5.931,0l.587-.37a8.311,8.311,0,0,1,1.421-.68,2.024,2.024,0,0,1,1.251-.17,4.112,4.112,0,0,1,.123,3.15,4.505,4.505,0,0,1,1.22,3.181,7.8,7.8,0,0,1-.317,2.324,4.779,4.779,0,0,1-.818,1.622,4.317,4.317,0,0,1-1.251,1.027,6.315,6.315,0,0,1-1.452.6,10.565,10.565,0,0,1-1.583.278,2.751,2.751,0,0,1,.8,2.193v3.258a.615.615,0,0,0,.193.463.671.671,0,0,0,.61.108A11.615,11.615,0,0,0,21.459,24.2a11.529,11.529,0,0,0,2.262-6.973A11.611,11.611,0,0,0,22.131,11.272Z" transform="translate(0 -5.365)"/></g></svg>