<svg xmlns="http://www.w3.org/2000/svg" width="24.7" height="20.061" viewBox="0 0 24.7 20.061"><defs><style>.a{fill:#04d361;}</style></defs><path class="a" d="M24.7,2.382A10.883,10.883,0,0,1,22.161,5c.016.219.016.439.016.658a14.3,14.3,0,0,1-14.4,14.4A14.3,14.3,0,0,1,0,17.788a10.467,10.467,0,0,0,1.222.063,10.138,10.138,0,0,0,6.285-2.163,5.071,5.071,0,0,1-4.733-3.511,6.38,6.38,0,0,0,.956.078,5.352,5.352,0,0,0,1.332-.172A5.063,5.063,0,0,1,1,7.115V7.053A5.1,5.1,0,0,0,3.291,7.7,5.07,5.07,0,0,1,1.724.925a14.389,14.389,0,0,0,10.438,5.3,5.714,5.714,0,0,1-.125-1.16A5.067,5.067,0,0,1,20.8,1.6,9.966,9.966,0,0,0,24.01.376a5.049,5.049,0,0,1-2.225,2.79A10.149,10.149,0,0,0,24.7,2.382Z" transform="translate(0 0)"/></svg>